<?xml version="1.0" standalone="no"?><svg xmlns="http://www.w3.org/2000/svg" viewBox="0 0 1440 320"><path fill="#fff" fill-opacity="1" d="M0,224L15,202.7C30,181,60,139,90,138.7C120,139,150,181,180,213.3C210,245,240,267,270,256C300,245,330,203,360,165.3C390,128,420,96,450,80C480,64,510,64,540,96C570,128,600,192,630,197.3C660,203,690,149,720,144C750,139,780,181,810,192C840,203,870,181,900,186.7C930,192,960,224,990,245.3C1020,267,1050,277,1080,250.7C1110,224,1140,160,1170,128C1200,96,1230,96,1260,101.3C1290,107,1320,117,1350,133.3C1380,149,1410,171,1425,181.3L1440,192L1440,320L1425,320C1410,320,1380,320,1350,320C1320,320,1290,320,1260,320C1230,320,1200,320,1170,320C1140,320,1110,320,1080,320C1050,320,1020,320,990,320C960,320,930,320,900,320C870,320,840,320,810,320C780,320,750,320,720,320C690,320,660,320,630,320C600,320,570,320,540,320C510,320,480,320,450,320C420,320,390,320,360,320C330,320,300,320,270,320C240,320,210,320,180,320C150,320,120,320,90,320C60,320,30,320,15,320L0,320Z"></path></svg>