<?xml version="1.0" standalone="no"?><svg xmlns="http://www.w3.org/2000/svg" viewBox="0 0 1440 320"><path fill="#202020" fill-opacity="1" d="M0,160L15,181.3C30,203,60,245,90,229.3C120,213,150,139,180,128C210,117,240,171,270,165.3C300,160,330,96,360,64C390,32,420,32,450,58.7C480,85,510,139,540,176C570,213,600,235,630,240C660,245,690,235,720,213.3C750,192,780,160,810,138.7C840,117,870,107,900,128C930,149,960,203,990,213.3C1020,224,1050,192,1080,186.7C1110,181,1140,203,1170,218.7C1200,235,1230,245,1260,256C1290,267,1320,277,1350,250.7C1380,224,1410,160,1425,128L1440,96L1440,320L1425,320C1410,320,1380,320,1350,320C1320,320,1290,320,1260,320C1230,320,1200,320,1170,320C1140,320,1110,320,1080,320C1050,320,1020,320,990,320C960,320,930,320,900,320C870,320,840,320,810,320C780,320,750,320,720,320C690,320,660,320,630,320C600,320,570,320,540,320C510,320,480,320,450,320C420,320,390,320,360,320C330,320,300,320,270,320C240,320,210,320,180,320C150,320,120,320,90,320C60,320,30,320,15,320L0,320Z"></path></svg>